<?xml version="1.0" encoding="UTF-8" standalone="no"?>
<!-- Created with Inkscape (http://www.inkscape.org/) -->

<svg
   width="117.29934mm"
   height="117.29937mm"
   viewBox="0 0 117.29934 117.29937"
   version="1.1"
   id="svg1"
   xmlns="http://www.w3.org/2000/svg"
   xmlns:svg="http://www.w3.org/2000/svg">
  <defs
     id="defs1" />
  <g
     id="layer1"
     transform="translate(-46.12151,-89.481662)">
    <path
       id="light-mode-icon"
       style="display:inline;fill:none;stroke:#fff;stroke-width:3;stroke-linecap:round;stroke-linejoin:round"
       transform="rotate(-45)"
       d="m -30.431443,121.67941 c 1.523791,0 2.750525,1.22674 2.750525,2.75053 v 17.95931 c 0,1.52379 -1.226734,2.75053 -2.750525,2.75053 -1.523791,0 -2.750526,-1.22674 -2.750526,-2.75053 v -17.95931 c 0,-1.52379 1.226735,-2.75053 2.750526,-2.75053 z m -40.477939,16.57696 c 1.077482,-1.07748 2.81235,-1.07749 3.889833,-1e-5 l 12.699153,12.69916 c 1.077483,1.07748 1.077479,2.81235 -3e-6,3.88983 -1.077482,1.07748 -2.812351,1.07749 -3.889834,0 L -70.909386,142.1462 c -1.077483,-1.07748 -1.077478,-2.81235 4e-6,-3.88983 z m -16.900547,40.3439 c 0,-1.52379 1.226734,-2.75052 2.750526,-2.75052 h 17.959314 c 1.523791,0 2.750525,1.22673 2.750525,2.75052 0,1.5238 -1.226734,2.75053 -2.750525,2.75053 h -17.959314 c -1.523792,0 -2.750526,-1.22673 -2.750526,-2.75053 z m 16.576954,40.47794 c -1.077483,-1.07748 -1.077476,-2.81234 7e-6,-3.88983 l 12.699149,-12.69915 c 1.07749,-1.07749 2.812348,-1.07749 3.88983,0 1.07749,1.07749 1.07749,2.81234 0,3.88983 l -12.69915,12.69915 c -1.077482,1.07749 -2.812347,1.07749 -3.889836,0 z m 40.343909,16.90055 c -1.523791,0 -2.750525,-1.22673 -2.750525,-2.75053 v -17.95931 c 0,-1.52379 1.226734,-2.75053 2.750525,-2.75053 1.523791,0 2.750526,1.22674 2.750526,2.75053 v 17.95931 c 0,1.5238 -1.226735,2.75053 -2.750526,2.75053 z M 9.58887,219.40179 c -1.0774893,1.07749 -2.8123475,1.07749 -3.8898298,1e-5 L -7.0001167,206.70264 c -1.0774823,-1.07748 -1.0774823,-2.81234 7.1e-6,-3.88983 1.0774822,-1.07748 2.8123404,-1.07748 3.8898226,0 L 9.58887,215.51197 c 1.077482,1.07748 1.077482,2.81234 0,3.88982 z M 26.48942,179.0579 c 0,1.52379 -1.226734,2.75052 -2.750526,2.75052 H 5.7795801 c -1.5237911,0 -2.7505255,-1.22673 -2.7505255,-2.75052 0,-1.52379 1.2267344,-2.75053 2.7505255,-2.75053 H 23.738894 c 1.523792,0 2.750526,1.22674 2.750526,2.75053 z M 9.912464,138.57996 c 1.077482,1.07748 1.077479,2.81234 -3.6e-6,3.88983 l -12.6991541,12.69915 c -1.0774822,1.07748 -2.8123404,1.07748 -3.8898227,0 -1.0774822,-1.07748 -1.0774893,-2.81235 -7e-6,-3.88983 L 6.0226307,138.57996 c 1.0774829,-1.07749 2.812351,-1.07748 3.8898333,0 z m -22.759003,58.58421 a 25.332247,25.332247 0 0 1 -35.825212,0 25.332247,25.332247 0 0 1 2e-6,-35.8252 25.332247,25.332247 0 0 1 35.82521,-1e-5 25.332247,25.332247 0 0 1 0,35.82521 z" />
  </g>
</svg>
